<svg xmlns="http://www.w3.org/2000/svg" width="240" height="220" viewBox="0 0 240 220"><defs><linearGradient id="paper" x2="1" y2="0"><stop stop-color="#fffdf5"/><stop offset="1" stop-color="#e6e0cf"/></linearGradient><linearGradient id="milk" x2="1" y2="1"><stop stop-color="#fffef9"/><stop offset="1" stop-color="#d9e8e0"/></linearGradient><linearGradient id="red" x2=".8" y2="1"><stop stop-color="#f57755"/><stop offset="1" stop-color="#c93622"/></linearGradient><linearGradient id="grain" x2="1" y2="1"><stop stop-color="#e9b869"/><stop offset="1" stop-color="#ba7735"/></linearGradient><linearGradient id="green" x2="1" y2="1"><stop stop-color="#389875"/><stop offset="1" stop-color="#006348"/></linearGradient><linearGradient id="oil" x2="1" y2="0"><stop stop-color="#e3b443"/><stop offset=".55" stop-color="#f4d875"/><stop offset="1" stop-color="#bf922e"/></linearGradient></defs><ellipse cx="122" cy="197" rx="65" ry="9" fill="#203f29" opacity=".09"/><ellipse cx="87" cy="139" rx="39" ry="39" fill="url(#red)"/><ellipse cx="151" cy="135" rx="39" ry="39" fill="url(#red)"/><ellipse cx="118" cy="169" rx="37" ry="30" fill="url(#red)"/><path d="m86 103-15-7 5 15-16 6 22-1 13 13-2-17 14-10-18 3ZM150 100l-11-8-1 16-13 3 20 3 9 12 2-17 14-9-16 2Z" fill="#45794c"/><path d="m117 143-12-4 7 10-13 4 19 2 13-9-11 1Z" fill="#437b46"/><ellipse cx="72" cy="128" rx="8" ry="13" fill="white" opacity=".15"/></svg>